<svg xmlns="http://www.w3.org/2000/svg" width="33" height="32" viewBox="0 0 33 32" fill="none">
  <path d="M18.4388 5.35845L19.9879 6.89731C20.1378 7.04081 20.2712 7.08987 20.472 7.08987H22.6467C24.5263 7.08987 25.403 7.97961 25.403 9.84619V12.0291C25.403 12.2217 25.4585 12.3615 25.6039 12.505L27.1427 14.0522C28.4636 15.3749 28.4719 16.6188 27.1427 17.9396L25.6039 19.4869C25.4604 19.6388 25.403 19.7721 25.403 19.9712V22.1457C25.403 24.0272 24.5215 24.9038 22.6467 24.9038H20.472C20.2712 24.9038 20.1396 24.9594 19.9879 25.103L18.4388 26.6418C17.1179 27.9644 15.874 27.9728 14.5532 26.6418L13.0041 25.103C12.8606 24.9594 12.7208 24.9038 12.5282 24.9038H10.3453C8.47219 24.9038 7.58897 24.0207 7.58897 22.1457V19.9712C7.58897 19.7721 7.53992 19.6388 7.39641 19.4869L5.85755 17.9396C4.53669 16.6188 4.52834 15.3749 5.85755 14.0522L7.39641 12.505C7.53992 12.3633 7.58897 12.2217 7.58897 12.0291V9.84619C7.58897 7.96108 8.47036 7.08987 10.3453 7.08987H12.5282C12.7208 7.08987 12.8624 7.04081 13.0041 6.89731L14.5532 5.36028C15.874 4.03576 17.1161 4.02741 18.4388 5.35845ZM19.539 11.988L15.3324 18.7262L13.3707 16.2355C13.1089 15.8997 12.8649 15.7832 12.5506 15.7832C12.0256 15.7832 11.6144 16.2038 11.6144 16.7306C11.6144 16.9801 11.7079 17.2233 11.8899 17.4562L14.384 20.4902C14.6688 20.8593 14.9812 21.0172 15.3657 21.0172C15.7466 21.0172 16.0765 20.8306 16.3086 20.4828L21.072 13.0566C21.2142 12.8311 21.3374 12.5824 21.3374 12.3391C21.3374 11.8141 20.8688 11.4575 20.3708 11.4575C20.0501 11.4575 19.7616 11.6322 19.539 11.988Z" fill="#FFCC00"/>
</svg>