<svg width="26" height="26" viewBox="0 0 26 26" fill="none" xmlns="http://www.w3.org/2000/svg">
<g clip-path="url(#clip0_1108_24386)">
<rect x="1" y="1" width="24" height="24" rx="12" fill="#DB7F13"/>
<path d="M12.9561 18.2124C11.103 18.2124 9.90186 17.458 9.35254 16.396C9.21338 16.1396 9.15479 15.8979 9.15479 15.6489C9.15479 15.1509 9.46973 14.8359 9.99707 14.8359C10.3853 14.8359 10.6196 15.0044 10.8174 15.3926C11.1836 16.1909 11.8208 16.667 12.978 16.667C14.1792 16.667 14.9922 15.9785 14.9922 15.019C14.9995 13.8911 14.1792 13.2612 12.8242 13.2612H12.2236C11.7549 13.2612 11.4766 12.9756 11.4766 12.5581C11.4766 12.1406 11.7549 11.855 12.2236 11.855H12.7803C13.9448 11.855 14.7212 11.1885 14.7212 10.251C14.7212 9.33545 14.1206 8.72021 12.9487 8.72021C11.9526 8.72021 11.374 9.13037 11.0225 9.95801C10.8174 10.4121 10.6123 10.5806 10.1729 10.5806C9.64551 10.5806 9.36719 10.2729 9.36719 9.78955C9.36719 9.52588 9.41846 9.2915 9.55029 9.03516C10.0483 7.98779 11.2202 7.21875 12.9414 7.21875C15.1313 7.21875 16.5376 8.36133 16.5376 9.99463C16.5376 11.3203 15.5928 12.2065 14.3184 12.4702V12.5068C15.8784 12.6533 16.9111 13.5908 16.9111 15.063C16.9111 16.938 15.2705 18.2124 12.9561 18.2124Z" fill="white"/>
</g>
<rect x="0.835" y="0.835" width="24.33" height="24.33" rx="12.165" stroke="black" stroke-opacity="0.04" stroke-width="0.33"/>
<defs>
<clipPath id="clip0_1108_24386">
<rect x="1" y="1" width="24" height="24" rx="12" fill="white"/>
</clipPath>
</defs>
</svg>
