<svg width="26" height="26" viewBox="0 0 26 26" fill="none" xmlns="http://www.w3.org/2000/svg">
<rect x="1" y="1" width="24" height="24" rx="12" fill="#F5B931"/>
<rect x="0.835" y="0.835" width="24.33" height="24.33" rx="12.165" stroke="black" stroke-opacity="0.04" stroke-width="0.33"/>
<path d="M13.8716 18.1465C13.3223 18.1465 12.9414 17.7656 12.9414 17.1943V9.26221H12.9048L11.1982 10.4487C11.0151 10.5806 10.8687 10.6318 10.6636 10.6318C10.2681 10.6318 9.98242 10.3462 9.98242 9.92871C9.98242 9.63574 10.0996 9.41602 10.4146 9.19629L12.5752 7.68018C13.0439 7.35059 13.3369 7.28467 13.7324 7.28467C14.3989 7.28467 14.8018 7.6875 14.8018 8.33936V17.1943C14.8018 17.7656 14.4209 18.1465 13.8716 18.1465Z" fill="white"/>
</svg>
