<svg width="26" height="26" viewBox="0 0 26 26" fill="none" xmlns="http://www.w3.org/2000/svg">
<g clip-path="url(#clip0_1108_24384)">
<rect x="1" y="1" width="24" height="24" rx="12" fill="#8F9FAE"/>
<path d="M10.2314 18C9.64551 18 9.33789 17.6777 9.33789 17.2017C9.33789 16.8354 9.4624 16.6157 9.86523 16.2349L13.0952 13.0342C14.4429 11.7012 14.7798 11.1665 14.7798 10.3608C14.7798 9.41602 14.0547 8.73486 13.0366 8.73486C12.0845 8.73486 11.418 9.21826 11.0444 10.1704C10.854 10.5513 10.6343 10.749 10.2021 10.749C9.68945 10.749 9.38184 10.4341 9.38184 9.96533C9.38184 9.82617 9.40381 9.69434 9.44043 9.56982C9.72607 8.42725 10.9932 7.21875 13.0513 7.21875C15.168 7.21875 16.6255 8.47119 16.6255 10.2437C16.6255 11.4814 16.0322 12.3164 14.2817 14.0303L11.8574 16.418V16.4546H16.0762C16.5742 16.4546 16.8818 16.7622 16.8818 17.231C16.8818 17.6924 16.5742 18 16.0762 18H10.2314Z" fill="white"/>
</g>
<rect x="0.835" y="0.835" width="24.33" height="24.33" rx="12.165" stroke="black" stroke-opacity="0.04" stroke-width="0.33"/>
<defs>
<clipPath id="clip0_1108_24384">
<rect x="1" y="1" width="24" height="24" rx="12" fill="white"/>
</clipPath>
</defs>
</svg>
