<svg width="19" height="18" viewBox="0 0 19 18" fill="none" xmlns="http://www.w3.org/2000/svg">
<path d="M3.33601 16.3084L7.69311 14.4143C8.00188 14.2801 8.35873 14.3303 8.61855 14.5444L12.3145 17.5903C12.4978 17.7414 12.7333 17.8128 12.9698 17.7903C13.4614 17.7428 13.8214 17.3058 13.7738 16.8142L13.312 12.0534C13.2799 11.718 13.4388 11.393 13.7227 11.2126L17.7599 8.6459C17.9607 8.51828 18.1023 8.31618 18.1532 8.08392C18.2601 7.60185 17.9554 7.1246 17.4734 7.01767L12.7975 5.98269C12.469 5.9104 12.2091 5.65971 12.1252 5.33364L10.9264 0.699912C10.8673 0.470468 10.719 0.273779 10.5148 0.153661C10.0895 -0.0967762 9.54027 0.0445597 9.28983 0.469904L6.86112 4.59382C6.6906 4.88414 6.37082 5.05336 6.03512 5.0323L1.28194 4.73951C1.04196 4.72494 0.806717 4.80679 0.628223 4.96801C0.261379 5.29864 0.231452 5.86467 0.562084 6.23152L1.92018 7.73697C2.59953 8.49062 3.57695 8.90744 4.59139 8.87502L9.5813 8.71617C9.76673 8.71002 9.9322 8.8273 9.98832 9.00408C10.0578 9.22192 9.93716 9.45482 9.71932 9.52432L5.04784 11.0103C4.17198 11.2894 3.46472 11.9422 3.11625 12.7926L2.15208 15.1496C2.06066 15.3726 2.06379 15.6229 2.15975 15.8445C2.35635 16.2978 2.88267 16.505 3.33601 16.3084Z" fill="#F5B931"/>
</svg>
