<svg width="12" height="12" viewBox="0 0 12 12" fill="none" xmlns="http://www.w3.org/2000/svg">
<path d="M4.07527 11.4247L6.36305 9.40095C6.52518 9.25755 6.75334 9.21732 6.95474 9.29662L9.81966 10.4247C9.96179 10.4807 10.12 10.4776 10.2601 10.4169C10.5512 10.2901 10.6845 9.95142 10.5578 9.66029L9.32959 6.84108C9.24335 6.64242 9.27591 6.41212 9.41367 6.24544L11.3722 3.87399C11.4696 3.75608 11.5161 3.60438 11.5011 3.45225C11.4707 3.13625 11.1896 2.90497 10.8736 2.93537L7.80896 3.23148C7.59374 3.25255 7.38503 3.1509 7.26895 2.96819L5.61541 0.373128C5.53365 0.244592 5.40395 0.153776 5.25521 0.120909C4.94538 0.0522851 4.63767 0.247807 4.56905 0.557631L3.90334 3.56164C3.85675 3.77303 3.69485 3.94003 3.4854 3.99384L0.520975 4.75912C0.371351 4.79788 0.243776 4.89467 0.166668 5.0287C0.00805252 5.30374 0.102205 5.65578 0.377245 5.8144L1.50672 6.46507C2.07182 6.79091 2.75226 6.85159 3.36608 6.63024L6.38552 5.54178C6.49768 5.50118 6.62215 5.54001 6.69158 5.63695C6.77736 5.75634 6.74985 5.92271 6.63047 6.00849L4.06938 7.84514C3.5893 8.18981 3.28655 8.72945 3.24241 9.31861L3.12114 10.9513C3.10956 11.1059 3.1612 11.2583 3.2639 11.3747C3.47416 11.6128 3.83713 11.6349 4.07527 11.4247Z" fill="#F5B931"/>
</svg>
