<svg width="10" height="10" viewBox="0 0 10 10" fill="none" xmlns="http://www.w3.org/2000/svg">
<path d="M2.19894 8.3942L4.35369 7.45751C4.50639 7.39114 4.68287 7.41594 4.81135 7.52183L6.63912 9.02813C6.7298 9.10287 6.84625 9.13818 6.96319 9.12707C7.20631 9.10354 7.38435 8.88746 7.36083 8.64434L7.13245 6.28991C7.11658 6.12408 7.19514 5.96334 7.33555 5.87414L9.33211 4.6048C9.43139 4.54168 9.50141 4.44174 9.52659 4.32688C9.57947 4.08847 9.4288 3.85246 9.1904 3.79958L6.878 3.28774C6.71555 3.25199 6.58702 3.12801 6.54553 2.96676L5.95269 0.675198C5.92343 0.561729 5.85013 0.464459 5.74912 0.405056C5.53877 0.281205 5.26718 0.351101 5.14333 0.56145L3.94224 2.60089C3.85791 2.74446 3.69977 2.82815 3.53375 2.81773L1.18312 2.67293C1.06444 2.66573 0.948103 2.70621 0.859831 2.78594C0.678413 2.94945 0.663613 3.22937 0.827123 3.41079L1.49875 4.1553C1.83472 4.528 2.31809 4.73414 2.81977 4.71811L5.28747 4.63955C5.37917 4.6365 5.46101 4.6945 5.48876 4.78193C5.52313 4.88966 5.46346 5.00484 5.35573 5.03921L3.0455 5.77409C2.61235 5.91212 2.26259 6.23495 2.09026 6.65548L1.61344 7.8211C1.56823 7.93142 1.56977 8.05521 1.61723 8.16477C1.71446 8.38897 1.97474 8.49142 2.19894 8.3942Z" fill="#F5B931"/>
</svg>
